<mxfile host="app.diagrams.net" modified="2023-11-28T23:44:20.425Z" agent="Mozilla/5.0 (Windows NT 10.0; Win64; x64) AppleWebKit/537.36 (KHTML, like Gecko) Chrome/118.0.0.0 Safari/537.36 OPR/104.0.0.0" version="22.1.4" etag="aPpU5_hJRKLIFJTW-kVv" type="github">
  <diagram name="PÃ¡gina-1" id="ujATA-3aLMjF_ETq_6kq">
    <mxGraphModel>
      <root>
        <mxCell id="0" />
        <mxCell id="1" parent="0" />
      </root>
    </mxGraphModel>
  </diagram>
</mxfile>
